<svg width="712" height="83" viewBox="0 0 712 83" fill="none" xmlns="http://www.w3.org/2000/svg">
<path d="M24.952 6.632C24.952 8.936 24.1413 10.9413 22.52 12.648C20.984 14.3547 19.1067 15.208 16.888 15.208C15.1813 15.208 13.7733 14.6533 12.664 13.544C11.5547 12.3493 11 10.856 11 9.064C11 6.75999 11.768 4.75466 13.304 3.048C14.84 1.25599 16.7173 0.359993 18.936 0.359993C20.6427 0.359993 22.0507 0.957326 23.16 2.15199C24.3547 3.34666 24.952 4.83999 24.952 6.632ZM8.568 32.488C7.8 32.4027 6.81867 32.3173 5.624 32.232C4.42933 32.1467 3.448 32.0613 2.68 31.976C1.912 31.8907 1.22933 31.848 0.632 31.848L1.144 28.904C2.76533 28.904 6.09333 28.008 11.128 26.216C16.1627 24.3387 19.6613 23.4 21.624 23.4L12.024 81H0.504L8.568 32.488ZM51.085 32.744C56.205 26.4293 62.989 23.272 71.437 23.272C82.3597 23.272 87.821 27.7947 87.821 36.84C87.821 38.2907 87.693 39.8693 87.437 41.576L83.085 67.432C82.9143 68.7973 82.829 69.736 82.829 70.248C82.829 72.7227 83.3837 74.6427 84.493 76.008C85.6877 77.3733 87.309 78.056 89.357 78.056L88.845 81C82.8717 81 78.3917 80.232 75.405 78.696C72.5037 77.16 71.053 74.6853 71.053 71.272C71.053 70.76 71.1383 69.9067 71.309 68.712L76.045 40.68C76.2157 39.8267 76.301 38.5893 76.301 36.968C76.301 30.824 73.0157 27.752 66.445 27.752C60.3863 27.752 54.8823 31.8053 49.933 39.912L43.021 81H31.501L39.565 32.488C38.797 32.4027 37.8157 32.3173 36.621 32.232C35.4263 32.1467 34.445 32.0613 33.677 31.976C32.909 31.8907 32.2263 31.848 31.629 31.848L32.141 28.904C33.7623 28.904 37.0903 28.008 42.125 26.216C47.1597 24.3387 50.6583 23.4 52.621 23.4L51.085 32.744ZM115.864 81L104.088 29.928C103.576 28.2213 101.016 27.368 96.408 27.368L96.92 24.68H115.096L124.696 65.384C125.123 64.7867 126.445 63.0373 128.664 60.136C130.968 57.1493 132.504 55.1013 133.272 53.992C134.125 52.7973 135.448 50.8347 137.24 48.104C139.117 45.3733 140.525 43.1547 141.464 41.448C142.403 39.7413 143.384 37.6933 144.408 35.304C145.517 32.9147 146.371 30.6533 146.968 28.52C145.944 27.752 143.725 27.368 140.312 27.368L140.824 24.68H154.136C153.283 29.9707 151.149 35.6453 147.736 41.704C144.408 47.6773 140.952 52.8827 137.368 57.32C133.869 61.672 130.541 66.1093 127.384 70.632C124.312 75.0693 122.563 78.5253 122.136 81H115.864ZM212.505 40.552C212.505 43.1973 211.396 45.3733 209.177 47.08C207.044 48.7013 202.35 50.024 195.097 51.048L170.393 54.376C170.393 60.776 171.844 66.2373 174.745 70.76C177.732 75.1973 181.486 77.416 186.009 77.416C193.518 77.416 199.961 74.6 205.337 68.968L208.153 70.504C204.996 74.5147 201.284 77.5013 197.017 79.464C192.75 81.3413 187.332 82.28 180.761 82.28C174.532 82.28 169.113 80.4453 164.505 76.776C159.982 73.1067 157.721 67.048 157.721 58.6C157.721 48.4453 160.537 40.04 166.169 33.384C171.801 26.728 179.524 23.4 189.337 23.4C197.273 23.4 203.118 25.192 206.873 28.776C210.628 32.2747 212.505 36.2 212.505 40.552ZM170.649 50.408L189.721 47.848C197.23 46.9093 200.985 43.88 200.985 38.76C200.985 35.8587 199.961 33.2133 197.913 30.824C195.95 28.4347 192.708 27.24 188.185 27.24C184.686 27.24 181.145 29.416 177.561 33.768C174.062 38.12 171.758 43.6667 170.649 50.408ZM244.919 27.752C242.018 27.752 239.244 28.5627 236.599 30.184C234.039 31.72 232.759 33.5547 232.759 35.688C232.759 37.8213 233.74 39.7413 235.703 41.448C237.666 43.1547 240.055 44.648 242.871 45.928C245.687 47.208 248.503 48.5307 251.319 49.896C254.135 51.2613 256.524 53.0533 258.487 55.272C260.45 57.4907 261.431 60.008 261.431 62.824C261.431 68.7973 258.999 73.5333 254.135 77.032C249.271 80.5307 243.511 82.28 236.855 82.28C233.783 82.28 230.754 81.64 227.767 80.36C224.866 79.08 223.244 78.44 222.903 78.44C221.879 78.44 221.239 79.2933 220.983 81H217.911L219.319 64.744H222.135C222.135 68.1573 223.927 71.1013 227.511 73.576C231.18 75.9653 234.935 77.16 238.775 77.16C240.311 77.16 241.89 76.9893 243.511 76.648C245.132 76.3067 246.754 75.4107 248.375 73.96C250.082 72.424 250.935 70.4187 250.935 67.944C250.935 65.896 249.996 64.0613 248.119 62.44C246.327 60.8187 244.066 59.4533 241.335 58.344C238.69 57.1493 236.044 55.912 233.399 54.632C230.754 53.352 228.492 51.6027 226.615 49.384C224.823 47.1653 223.927 44.5627 223.927 41.576C223.927 35.8587 225.932 31.4213 229.943 28.264C234.039 25.0213 239.116 23.4 245.175 23.4C248.076 23.4 250.935 24.04 253.751 25.32C256.652 26.6 258.316 27.24 258.743 27.24C259.852 27.24 260.535 26.3867 260.791 24.68H263.735L262.199 40.936H259.383C259.383 37.4373 257.932 34.3653 255.031 31.72C252.13 29.0747 248.759 27.752 244.919 27.752ZM298.833 6.12L295.761 24.68H306.769L306.129 28.52H295.121L288.209 69.224C288.038 70.5893 287.953 71.5707 287.953 72.168C287.953 75.6667 289.83 77.416 293.585 77.416C295.121 77.416 296.785 76.6907 298.577 75.24C300.454 73.704 301.905 71.6133 302.929 68.968L305.745 70.504C302.588 78.3547 296.785 82.28 288.337 82.28C279.974 82.28 275.793 78.7813 275.793 71.784C275.793 70.6747 275.921 69.48 276.177 68.2L282.833 28.52H273.873L274.513 24.68C279.462 24.68 283.772 22.8453 287.441 19.176C291.196 15.4213 293.457 11.0693 294.225 6.12H298.833ZM314.46 6.12H378.716L376.668 18.536H373.98C374.236 16.744 374.364 15.2933 374.364 14.184C374.364 12.2213 373.809 10.984 372.7 10.472H351.708L340.828 75.752C341.34 77.4587 343.9 78.312 348.508 78.312L347.996 81H320.092L320.604 78.312C325.297 78.312 328.113 77.4587 329.052 75.752L339.932 10.472H318.94C317.148 11.1547 315.868 13.8427 315.1 18.536H312.412L314.46 6.12ZM412.321 35.048C411.126 35.048 410.188 34.664 409.505 33.896C408.822 33.128 408.353 32.3173 408.097 31.464C407.841 30.5253 407.329 29.672 406.561 28.904C405.878 28.136 404.94 27.752 403.745 27.752C401.014 27.752 396.278 33.4693 389.537 44.904L383.521 81H372.001L380.065 32.488C379.297 32.4027 378.316 32.3173 377.121 32.232C375.926 32.1467 374.945 32.0613 374.177 31.976C373.409 31.8907 372.726 31.848 372.129 31.848L372.641 28.904C374.262 28.904 377.59 28.008 382.625 26.216C387.66 24.3387 391.158 23.4 393.121 23.4L391.073 35.944C396.961 27.5813 401.868 23.4 405.793 23.4C409.377 23.4 412.321 24.0827 414.625 25.448C417.014 26.728 418.209 28.2213 418.209 29.928C418.209 31.5493 417.612 32.8293 416.417 33.768C415.222 34.6213 413.857 35.048 412.321 35.048ZM436.355 37.992C436.355 39.8693 435.715 41.32 434.435 42.344C433.155 43.368 431.619 43.88 429.827 43.88C428.462 43.88 427.352 43.4533 426.499 42.6C425.646 41.6613 425.219 40.4667 425.219 39.016C425.219 34.0667 427.395 30.2267 431.747 27.496C436.184 24.7653 441.859 23.4 448.771 23.4C455.598 23.4 460.632 24.936 463.875 28.008C467.118 30.9947 468.739 35.0053 468.739 40.04C468.739 41.064 468.568 42.6853 468.227 44.904L464.515 67.432C464.344 68.7973 464.259 69.736 464.259 70.248C464.259 72.7227 464.814 74.6427 465.923 76.008C467.118 77.3733 468.739 78.056 470.787 78.056L470.275 81C461.827 81 456.408 79.4213 454.019 76.264C448.046 80.2747 441.219 82.28 433.539 82.28C422.275 82.28 416.643 78.312 416.643 70.376C416.643 68.1573 417.07 66.152 417.923 64.36C418.862 62.4827 420.184 60.9467 421.891 59.752C423.598 58.472 425.39 57.3627 427.267 56.424C429.23 55.4853 431.534 54.6747 434.179 53.992C436.824 53.224 439.256 52.584 441.475 52.072C443.694 51.56 446.211 51.0053 449.027 50.408C451.928 49.8107 454.275 49.256 456.067 48.744C456.664 44.5627 456.963 41.448 456.963 39.4C456.963 35.7307 456.024 32.9147 454.147 30.952C452.27 28.9893 449.795 28.008 446.723 28.008C439.128 28.008 434.435 30.056 432.643 34.152C435.118 34.152 436.355 35.432 436.355 37.992ZM455.555 51.56C454.446 51.9013 452.526 52.4133 449.795 53.096C447.15 53.7787 445.059 54.376 443.523 54.888C442.072 55.3147 440.238 56.04 438.019 57.064C435.886 58.0027 434.222 59.0267 433.027 60.136C431.832 61.2453 430.766 62.696 429.827 64.488C428.974 66.28 428.547 68.328 428.547 70.632C428.547 75.496 431.192 77.928 436.483 77.928C442.371 77.928 447.79 76.4773 452.739 73.576C452.568 72.7227 452.483 71.9973 452.483 71.4C452.483 70.8027 452.568 69.9067 452.739 68.712L455.555 51.56ZM522.681 39.656C522.681 37.6933 523.278 36.2 524.473 35.176C525.668 34.152 526.862 33.64 528.057 33.64C527.716 29.3733 523.705 27.24 516.025 27.24C510.052 27.24 504.889 29.8853 500.537 35.176C496.27 40.3813 494.137 47.0373 494.137 55.144C494.137 61.288 495.63 66.536 498.617 70.888C501.689 75.24 505.444 77.416 509.881 77.416C517.39 77.416 523.833 74.6 529.209 68.968L532.025 70.504C528.868 74.5147 525.156 77.5013 520.889 79.464C516.622 81.3413 511.204 82.28 504.633 82.28C498.404 82.28 492.985 80.4453 488.377 76.776C483.854 73.1067 481.593 67.048 481.593 58.6C481.593 48.4453 484.665 40.04 490.809 33.384C496.953 26.728 505.145 23.4 515.385 23.4C528.1 23.4 534.457 27.1547 534.457 34.664C534.457 37.224 533.817 39.3147 532.537 40.936C531.342 42.5573 529.721 43.368 527.673 43.368C524.345 43.368 522.681 42.1307 522.681 39.656ZM600.446 24.68L599.934 27.368C596.606 27.368 594.217 27.9227 592.766 29.032L571.902 45.288L588.798 75.88C589.737 77.5013 592.297 78.312 596.478 78.312L595.966 81H583.038C579.539 81 576.723 78.952 574.59 74.856L559.998 48.488L585.982 28.136C584.873 27.624 582.825 27.368 579.838 27.368L580.35 24.68H600.446ZM554.11 9.448C548.819 9.02133 546.131 8.808 546.046 8.808L546.558 5.864C548.179 5.864 551.507 4.968 556.542 3.17599C561.577 1.29866 565.075 0.359993 567.038 0.359993L553.598 81H542.078L554.11 9.448ZM656.005 40.552C656.005 43.1973 654.896 45.3733 652.677 47.08C650.544 48.7013 645.85 50.024 638.597 51.048L613.893 54.376C613.893 60.776 615.344 66.2373 618.245 70.76C621.232 75.1973 624.986 77.416 629.509 77.416C637.018 77.416 643.461 74.6 648.837 68.968L651.653 70.504C648.496 74.5147 644.784 77.5013 640.517 79.464C636.25 81.3413 630.832 82.28 624.261 82.28C618.032 82.28 612.613 80.4453 608.005 76.776C603.482 73.1067 601.221 67.048 601.221 58.6C601.221 48.4453 604.037 40.04 609.669 33.384C615.301 26.728 623.024 23.4 632.837 23.4C640.773 23.4 646.618 25.192 650.373 28.776C654.128 32.2747 656.005 36.2 656.005 40.552ZM614.149 50.408L633.221 47.848C640.73 46.9093 644.485 43.88 644.485 38.76C644.485 35.8587 643.461 33.2133 641.413 30.824C639.45 28.4347 636.208 27.24 631.685 27.24C628.186 27.24 624.645 29.416 621.061 33.768C617.562 38.12 615.258 43.6667 614.149 50.408ZM705.571 35.048C704.376 35.048 703.438 34.664 702.755 33.896C702.072 33.128 701.603 32.3173 701.347 31.464C701.091 30.5253 700.579 29.672 699.811 28.904C699.128 28.136 698.19 27.752 696.995 27.752C694.264 27.752 689.528 33.4693 682.787 44.904L676.771 81H665.251L673.315 32.488C672.547 32.4027 671.566 32.3173 670.371 32.232C669.176 32.1467 668.195 32.0613 667.427 31.976C666.659 31.8907 665.976 31.848 665.379 31.848L665.891 28.904C667.512 28.904 670.84 28.008 675.875 26.216C680.91 24.3387 684.408 23.4 686.371 23.4L684.323 35.944C690.211 27.5813 695.118 23.4 699.043 23.4C702.627 23.4 705.571 24.0827 707.875 25.448C710.264 26.728 711.459 28.2213 711.459 29.928C711.459 31.5493 710.862 32.8293 709.667 33.768C708.472 34.6213 707.107 35.048 705.571 35.048Z" fill="url(#paint0_linear_2_35)"/>
<defs>
<linearGradient id="paint0_linear_2_35" x1="-5" y1="41" x2="710" y2="41" gradientUnits="userSpaceOnUse">
<stop stop-color="#EFE5E5"/>
<stop offset="1" stop-color="#E0DCDC"/>
</linearGradient>
</defs>
</svg>
