<svg width="200" height="200" viewBox="0 0 200 200" fill="none" xmlns="http://www.w3.org/2000/svg">
<path d="M100 0L186.603 50V150L100 200L13.3975 150V50L100 0Z" fill="#FFFCFC"/>
<path d="M57.448 44.832C57.704 44.6613 58.4293 44.576 59.624 44.576C67.56 44.9173 76.392 45.0027 86.12 44.832L95.848 44.576H97.256L97.64 44.96C97.9813 45.3013 98.152 45.6427 98.152 45.984C98.152 47.3493 97.7253 49.0133 96.872 50.976C96.7013 51.488 95.464 51.744 93.16 51.744C92.7333 51.744 92.2213 51.744 91.624 51.744C86.5893 51.8293 83.7733 52.1707 83.176 52.768L82.664 53.152L73.96 88.48C68.072 111.861 65.128 123.68 65.128 123.936C65.0427 124.192 65.4267 124.363 66.28 124.448C67.3893 124.619 69.5227 124.747 72.68 124.832C75.9227 124.832 77.7147 125.131 78.056 125.728C78.1413 125.984 78.0133 126.965 77.672 128.672C77.2453 130.293 76.8613 131.275 76.52 131.616L76.136 132H74.088C64.2747 131.573 53.1387 131.531 40.68 131.872C37.7787 131.957 36.1573 131.701 35.816 131.104C35.7307 130.848 35.8587 129.867 36.2 128.16C36.712 126.453 37.0533 125.472 37.224 125.216L37.736 124.832H42.216C46.7387 124.747 49.4267 124.491 50.28 124.064C50.536 123.979 50.8347 123.765 51.176 123.424L68.84 52.64C68.84 52.5547 68.7547 52.4267 68.584 52.256C67.9013 52 65.512 51.8293 61.416 51.744C58.088 51.744 56.296 51.488 56.04 50.976C55.8693 50.72 55.9547 49.7387 56.296 48.032C56.7227 46.24 57.1067 45.1733 57.448 44.832Z" fill="url(#paint0_linear_3_2)"/>
<path d="M89.544 75.728L89.928 75.344H127.944C153.544 75.344 166.557 75.6 166.984 76.112C167.155 76.5387 166.429 81.6587 164.808 91.472C163.101 101.541 162.205 106.619 162.12 106.704C161.779 107.131 160.755 107.344 159.048 107.344C157.256 107.344 156.275 107.088 156.104 106.576C155.933 106.235 155.976 105.168 156.232 103.376C157.512 95.6107 157.768 90.4053 157 87.76C156.232 85.2 153.544 83.536 148.936 82.768C148.168 82.6827 145.693 82.64 141.512 82.64C136.648 82.5547 134.003 82.768 133.576 83.28C133.405 83.4507 130.419 95.2693 124.616 118.736L115.784 153.936L116.168 154.192C117.277 154.619 121.501 154.832 128.84 154.832H132.808L133.32 155.216C133.576 155.557 133.704 155.856 133.704 156.112L132.552 161.232C132.296 161.744 131.443 161.957 129.992 161.872C129.48 161.872 128.243 161.872 126.28 161.872C108.445 161.531 94.536 161.573 84.552 162H82.632L82.248 161.616C81.8213 161.189 81.7787 160.208 82.12 158.672C82.12 158.501 82.1627 158.331 82.248 158.16C82.6747 156.283 83.0587 155.259 83.4 155.088C83.656 154.917 85.1493 154.832 87.88 154.832C93.5973 154.832 97.3093 154.704 99.016 154.448C100.381 154.363 101.32 154.064 101.832 153.552C102.003 153.296 104.989 141.477 110.792 118.096C116.68 94.6293 119.624 82.8533 119.624 82.768C119.283 82.5973 116.637 82.512 111.688 82.512C107.763 82.5973 105.373 82.7253 104.52 82.896C99.5707 83.664 95.944 85.456 93.64 88.272C91.4213 91.0027 89.032 96.1653 86.472 103.76C85.7893 105.637 85.448 106.619 85.448 106.704C85.1067 107.131 84.0827 107.344 82.376 107.344C80.6693 107.344 79.6453 107.045 79.304 106.448L79.176 106.064L84.04 91.088C87.4533 81.104 89.288 75.984 89.544 75.728Z" fill="url(#paint1_linear_3_2)"/>
<defs>
<linearGradient id="paint0_linear_3_2" x1="46.8908" y1="48.5294" x2="106.191" y2="89.8731" gradientUnits="userSpaceOnUse">
<stop stop-color="#6D6D6D"/>
<stop offset="0.772967" stop-color="#222222"/>
<stop offset="0.873601" stop-color="#878787"/>
</linearGradient>
<linearGradient id="paint1_linear_3_2" x1="95.2773" y1="78.5294" x2="158.243" y2="136.291" gradientUnits="userSpaceOnUse">
<stop stop-color="#6D6D6D"/>
<stop offset="0.772967" stop-color="#222222"/>
<stop offset="0.873601" stop-color="#878787"/>
</linearGradient>
</defs>
</svg>
